# xmcd
#
# Track frame offsets:
#	150
#	13479
#	25025
#	40956
#	54295
#	64636
#	75154
#	83495
#	93487
#	105997
#	115980
#	130970
#	145126
#	163438
#	173428
#	190078
#	208948
#	223937
#	240602
#	256417
#	269732
#	283262
#	293257
#	305637
#	318661
#	337400
#
# Disc length: 4721 seconds
#
# Revision: 0
# Processed by: cddbd v1.5.2PL0 Copyright (c) Steve Scherf et al.
# Submitted via: dBpowerAMP V4.0
#
DISCID=84126f1a
DTITLE=Various Artist - Knowledge Magazine presents Groove Attack mixed by The Green Man - KNOW103
DYEAR=2008
DGENRE=Drum and Bass
TTITLE0=The Green Man - In Custody
TTITLE1=Furney - Wake me up Mr. Red
TTITLE2=LAOS - Star Soul
TTITLE3=Syncopix - Disc Go!
TTITLE4=Dizplay - Coming Home
TTITLE5=Miss Redflower - Here to fly (Misha remix)
TTITLE6=Biz Markie - Let me see you bounce (Chris.SU remix)
TTITLE7=Filibration - Super Bomba Banana
TTITLE8=Munk - Circles of Hell
TTITLE9=Peyo - That's what you do to me (Random Movement remix)
TTITLE10=J. Rawls feat. Middle Child - Music over madness (Zero T remix)
TTITLE11=Subz and Matik - Lighthouse Blues
TTITLE12=J-Cut and Kolt Siewerts - The Flute Tune
TTITLE13=Camo and Krooked - It Has Begun
TTITLE14=Syncopix - Conductor
TTITLE15=Simon V and Telmo A - The Rhythm Track
TTITLE16=The Green Man - Easy (Zero T remix)
TTITLE17=Eric and Cruel Culture - Prism (Malsum remix)
TTITLE18=Proktah - Saccharine
TTITLE19=Rregula and Dementia - Badd Medicine
TTITLE20=MASK - My Dear
TTITLE21=The Green Man - Leave Me Alone
TTITLE22=Dan Marshall - Exodus
TTITLE23=Donnie Dubson - Everywhere
TTITLE24=Nookie - Get Down (PBK and Miss Drop remix)
TTITLE25=DJ Clart - These Words
EXTD=Knowledge Magazine presents Groove Attack miixed by The Green Man
EXTT0=
EXTT1=
EXTT2=
EXTT3=
EXTT4=
EXTT5=
EXTT6=
EXTT7=
EXTT8=
EXTT9=
EXTT10=
EXTT11=
EXTT12=
EXTT13=
EXTT14=
EXTT15=
EXTT16=
EXTT17=
EXTT18=
EXTT19=
EXTT20=
EXTT21=
EXTT22=
EXTT23=
EXTT24=
EXTT25=
PLAYORDER=
